<?xml version="1.0" encoding="UTF-8"?>
<svg xmlns="http://www.w3.org/2000/svg" version="1.1" width="24" height="24" viewBox="0 0 24 24" preserveAspectRatio="xMidYMid meet" shape-rendering="geometricPrecision">
  <title>Sliders</title>
  <path d="M5 6L19 6 M5 12L19 12 M5 18L19 18 M7 6a2,2 0 1,0 4,0a2,2 0 1,0 -4,0 M13 12a2,2 0 1,0 4,0a2,2 0 1,0 -4,0 M8 18a2,2 0 1,0 4,0a2,2 0 1,0 -4,0" fill="none" stroke="#1D2433" stroke-width="1.8" stroke-linecap="round" stroke-linejoin="round" stroke-miterlimit="10" vector-effect="non-scaling-stroke"/>
</svg>
